<svg xmlns="http://www.w3.org/2000/svg" xmlns:xlink="http://www.w3.org/1999/xlink" width="500" zoomAndPan="magnify" viewBox="0 0 375 374.999991" height="500" preserveAspectRatio="xMidYMid meet" version="1.0"><defs><g/><clipPath id="id1"><path d="M 150 125.414062 L 203 125.414062 L 203 190 L 150 190 Z M 150 125.414062 " clip-rule="nonzero"/></clipPath><clipPath id="id2"><path d="M 172.46875 125.484375 L 225.332031 125.484375 L 225.332031 197.902344 L 172.46875 197.902344 Z M 172.46875 125.484375 " clip-rule="nonzero"/></clipPath></defs><g clip-path="url(#id1)"><path fill="#f34044" d="M 197.703125 163.574219 C 189.078125 156.722656 165.585938 155.46875 165.585938 155.46875 C 165.585938 155.46875 176.949219 152.898438 185.691406 147.148438 C 194.835938 141.132812 195.132812 135.261719 192.640625 130.726562 C 190.671875 127.132812 184.96875 125.488281 179.9375 125.832031 C 169.125 126.566406 162.617188 132.035156 160.183594 134.621094 C 153.867188 141.34375 150 150.378906 150 160.320312 C 150 170.375 153.953125 179.503906 160.398438 186.246094 C 168.269531 193.832031 191.6875 186.414062 198.886719 178.992188 C 203.738281 173.992188 203.6875 168.328125 197.703125 163.574219 " fill-opacity="1" fill-rule="nonzero"/></g><g clip-path="url(#id2)"><path fill="#f34044" d="M 201.824219 125.488281 C 207.089844 129.21875 207.15625 135.3125 205.40625 139.3125 C 202.324219 146.367188 191.527344 152.445312 191.527344 152.445312 C 191.527344 152.445312 209.203125 154.492188 215.847656 163.433594 C 228.175781 180.03125 198.457031 196.445312 172.511719 194.734375 C 177.148438 196.769531 182.273438 197.902344 187.667969 197.902344 C 208.46875 197.902344 225.332031 181.078125 225.332031 160.320312 C 225.332031 144.5625 215.609375 131.070312 201.824219 125.488281 " fill-opacity="1" fill-rule="nonzero"/></g><g fill="#000000" fill-opacity="1"><g transform="translate(93.331551, 226.996816)"><g><path d="M 2.734375 -21.703125 L 9.484375 -21.703125 C 12.566406 -21.703125 14.800781 -21.265625 16.1875 -20.390625 C 17.582031 -19.515625 18.28125 -18.125 18.28125 -16.21875 C 18.28125 -14.914062 17.972656 -13.847656 17.359375 -13.015625 C 16.753906 -12.191406 15.945312 -11.691406 14.9375 -11.515625 L 14.9375 -11.375 C 16.3125 -11.0625 17.300781 -10.484375 17.90625 -9.640625 C 18.519531 -8.804688 18.828125 -7.691406 18.828125 -6.296875 C 18.828125 -4.316406 18.109375 -2.769531 16.671875 -1.65625 C 15.242188 -0.550781 13.304688 0 10.859375 0 L 2.734375 0 Z M 7.328125 -13.109375 L 10 -13.109375 C 11.25 -13.109375 12.15625 -13.300781 12.71875 -13.6875 C 13.28125 -14.070312 13.5625 -14.710938 13.5625 -15.609375 C 13.5625 -16.429688 13.253906 -17.023438 12.640625 -17.390625 C 12.035156 -17.753906 11.070312 -17.9375 9.75 -17.9375 L 7.328125 -17.9375 Z M 7.328125 -9.453125 L 7.328125 -3.796875 L 10.328125 -3.796875 C 11.597656 -3.796875 12.535156 -4.035156 13.140625 -4.515625 C 13.742188 -5.003906 14.046875 -5.75 14.046875 -6.75 C 14.046875 -8.550781 12.757812 -9.453125 10.1875 -9.453125 Z M 7.328125 -9.453125 "/></g></g></g><g fill="#000000" fill-opacity="1"><g transform="translate(117.738968, 226.996816)"><g><path d="M 15.234375 0 L 2.734375 0 L 2.734375 -21.703125 L 15.234375 -21.703125 L 15.234375 -17.9375 L 7.328125 -17.9375 L 7.328125 -13.171875 L 14.6875 -13.171875 L 14.6875 -9.390625 L 7.328125 -9.390625 L 7.328125 -3.796875 L 15.234375 -3.796875 Z M 15.234375 0 "/></g></g></g><g fill="#000000" fill-opacity="1"><g transform="translate(138.747341, 226.996816)"><g><path d="M 21.984375 0 L 16.140625 0 L 6.703125 -16.421875 L 6.5625 -16.421875 C 6.75 -13.523438 6.84375 -11.457031 6.84375 -10.21875 L 6.84375 0 L 2.734375 0 L 2.734375 -21.703125 L 8.53125 -21.703125 L 17.96875 -5.453125 L 18.0625 -5.453125 C 17.914062 -8.273438 17.84375 -10.269531 17.84375 -11.4375 L 17.84375 -21.703125 L 21.984375 -21.703125 Z M 21.984375 0 "/></g></g></g><g fill="#000000" fill-opacity="1"><g transform="translate(167.444377, 226.996816)"><g><path d="M 16.875 0 L 0.734375 0 L 0.734375 -2.984375 L 11.140625 -17.90625 L 1.015625 -17.90625 L 1.015625 -21.703125 L 16.59375 -21.703125 L 16.59375 -18.734375 L 6.203125 -3.796875 L 16.875 -3.796875 Z M 16.875 0 "/></g></g></g><g fill="#000000" fill-opacity="1"><g transform="translate(189.03163, 226.996816)"><g><path d="M 16.015625 0 L 14.453125 -5.171875 L 6.53125 -5.171875 L 4.953125 0 L 0 0 L 7.65625 -21.796875 L 13.28125 -21.796875 L 20.984375 0 Z M 13.34375 -9.03125 C 11.894531 -13.707031 11.078125 -16.351562 10.890625 -16.96875 C 10.703125 -17.582031 10.570312 -18.066406 10.5 -18.421875 C 10.164062 -17.160156 9.226562 -14.03125 7.6875 -9.03125 Z M 13.34375 -9.03125 "/></g></g></g><g fill="#000000" fill-opacity="1"><g transform="translate(213.988239, 226.996816)"><g><path d="M 2.734375 0 L 2.734375 -21.703125 L 7.328125 -21.703125 L 7.328125 0 Z M 2.734375 0 "/></g></g></g><g fill="#000000" fill-opacity="1"><g transform="translate(228.035255, 226.996816)"><g><path d="M 11.921875 0 L 6.703125 -17.03125 L 6.5625 -17.03125 C 6.75 -13.5625 6.84375 -11.25 6.84375 -10.09375 L 6.84375 0 L 2.734375 0 L 2.734375 -21.703125 L 9 -21.703125 L 14.140625 -5.109375 L 14.21875 -5.109375 L 19.671875 -21.703125 L 25.9375 -21.703125 L 25.9375 0 L 21.640625 0 L 21.640625 -10.28125 C 21.640625 -10.757812 21.644531 -11.316406 21.65625 -11.953125 C 21.675781 -12.585938 21.75 -14.269531 21.875 -17 L 21.734375 -17 L 16.140625 0 Z M 11.921875 0 "/></g></g></g><g fill="#000000" fill-opacity="1"><g transform="translate(260.680532, 226.996816)"><g><path d="M 16.015625 0 L 14.453125 -5.171875 L 6.53125 -5.171875 L 4.953125 0 L 0 0 L 7.65625 -21.796875 L 13.28125 -21.796875 L 20.984375 0 Z M 13.34375 -9.03125 C 11.894531 -13.707031 11.078125 -16.351562 10.890625 -16.96875 C 10.703125 -17.582031 10.570312 -18.066406 10.5 -18.421875 C 10.164062 -17.160156 9.226562 -14.03125 7.6875 -9.03125 Z M 13.34375 -9.03125 "/></g></g></g><g fill="#000000" fill-opacity="1"><g transform="translate(156.856503, 251.802274)"><g><path d="M 4.09375 0 L 1.546875 0 L 1.546875 -12.234375 L 8.546875 -12.234375 L 8.546875 -10.109375 L 4.09375 -10.109375 L 4.09375 -6.953125 L 8.25 -6.953125 L 8.25 -4.84375 L 4.09375 -4.84375 Z M 4.09375 0 "/></g></g></g><g fill="#000000" fill-opacity="1"><g transform="translate(173.48578, 251.802274)"><g><path d="M 9.03125 0 L 8.140625 -2.90625 L 3.6875 -2.90625 L 2.796875 0 L 0 0 L 4.3125 -12.28125 L 7.484375 -12.28125 L 11.828125 0 Z M 7.53125 -5.09375 C 6.707031 -7.726562 6.242188 -9.21875 6.140625 -9.5625 C 6.035156 -9.90625 5.960938 -10.179688 5.921875 -10.390625 C 5.734375 -9.671875 5.203125 -7.90625 4.328125 -5.09375 Z M 7.53125 -5.09375 "/></g></g></g><g fill="#000000" fill-opacity="1"><g transform="translate(192.534384, 251.802274)"><g><path d="M 11.6875 -6.234375 C 11.6875 -4.222656 11.113281 -2.679688 9.96875 -1.609375 C 8.820312 -0.535156 7.164062 0 5 0 L 1.546875 0 L 1.546875 -12.234375 L 5.375 -12.234375 C 7.375 -12.234375 8.925781 -11.707031 10.03125 -10.65625 C 11.132812 -9.601562 11.6875 -8.128906 11.6875 -6.234375 Z M 9 -6.171875 C 9 -8.796875 7.835938 -10.109375 5.515625 -10.109375 L 4.140625 -10.109375 L 4.140625 -2.140625 L 5.25 -2.140625 C 7.75 -2.140625 9 -3.484375 9 -6.171875 Z M 9 -6.171875 "/></g></g></g><g fill="#000000" fill-opacity="1"><g transform="translate(212.445231, 251.802274)"><g><path d="M 1.546875 0 L 1.546875 -12.234375 L 4.140625 -12.234375 L 4.140625 0 Z M 1.546875 0 "/></g></g></g></svg>